<svg width="53" height="52" viewBox="0 0 53 52" fill="none" xmlns="http://www.w3.org/2000/svg">
<rect x="0.459473" width="52" height="52" rx="6" fill="#CA0C64" fill-opacity="0.08" style="fill:#CA0C64;fill:color(display-p3 0.7922 0.0471 0.3922);fill-opacity:0.08;"/>
<path d="M15.0883 28.1126C16.0827 28.1126 16.9219 27.4911 17.2637 26.6209H22.267C22.3913 27.2424 22.6399 27.8329 22.9818 28.3612L19.4702 31.9039C18.6 31.531 17.5745 31.6864 16.8597 32.4011C15.9585 33.3023 15.9585 34.7939 16.8597 35.7263C17.761 36.6275 19.2526 36.6275 20.1849 35.7263C20.8997 35.0115 21.0551 33.986 20.6821 33.1158L24.2249 29.5731C24.7531 29.9149 25.3125 30.1636 25.9651 30.2879V35.2913C25.0949 35.6331 24.4734 36.4722 24.4734 37.4666C24.4734 38.7718 25.53 39.7974 26.8041 39.7974C28.0783 39.7974 29.1349 38.7407 29.1349 37.4666C29.1349 36.4722 28.5134 35.6331 27.6432 35.2913L27.6434 30.2879C28.2649 30.1636 28.8554 29.9151 29.3836 29.5731L32.9263 33.1158C32.5535 33.986 32.7089 35.0115 33.4235 35.7263C34.3248 36.6275 35.8164 36.6275 36.7487 35.7263C37.65 34.825 37.65 33.3334 36.7487 32.4011C36.0339 31.6863 35.0085 31.5309 34.1383 31.9039L30.5645 28.3612C30.9063 27.8329 31.155 27.2735 31.2793 26.6209H36.2826C36.6245 27.4911 37.4636 28.1126 38.458 28.1126C39.7632 28.1126 40.7888 27.056 40.7888 25.7819C40.7888 24.5078 39.7321 23.4511 38.458 23.4511C37.4636 23.4511 36.6245 24.0727 36.2826 24.9429L31.2793 24.9428C31.155 24.3212 30.9064 23.7307 30.5645 23.2025L34.1072 19.6598C34.9774 20.0326 36.0029 19.8773 36.7177 19.1626C37.6189 18.2613 37.6189 16.7697 36.7177 15.8374C35.8164 14.9361 34.3248 14.9361 33.3925 15.8374C32.6777 16.5522 32.5223 17.5776 32.8953 18.4478L29.3525 21.9905C28.8243 21.6487 28.2649 21.4001 27.6123 21.2757L27.6122 16.3035C28.4824 15.9617 29.1039 15.1225 29.1039 14.1281C29.1039 12.8229 28.0473 11.7974 26.7732 11.7974C25.499 11.7974 24.4424 12.854 24.4424 14.1281C24.4424 15.1225 25.064 15.9617 25.9341 16.3035V21.3068C25.3126 21.4311 24.7221 21.6797 24.1939 22.0216L20.6512 18.4789C21.024 17.6087 20.8686 16.5832 20.154 15.8684C19.2527 14.9672 17.7611 14.9672 16.8288 15.8684C15.9275 16.7697 15.9275 18.2613 16.8288 19.1936C17.5436 19.9085 18.569 20.0638 19.4392 19.6908L22.9819 23.2336C22.6401 23.7618 22.3914 24.3213 22.2671 24.9738L17.2949 24.9739C16.953 24.1037 16.1139 23.4822 15.1195 23.4822C13.8143 23.4822 12.7888 24.5388 12.7888 25.813C12.7577 27.0871 13.8143 28.1126 15.0884 28.1126L15.0883 28.1126ZM26.7731 23.389C28.0783 23.389 29.166 24.4456 29.166 25.7818C29.166 27.087 28.1093 28.1747 26.7731 28.1747C25.4679 28.1747 24.3803 27.118 24.3803 25.7818C24.3803 24.4767 25.4679 23.389 26.7731 23.389Z" fill="#CA0C64" style="fill:#CA0C64;fill:color(display-p3 0.7922 0.0471 0.3922);fill-opacity:1;"/>
</svg>
