<svg width="42" height="42" viewBox="0 0 42 42" fill="none" xmlns="http://www.w3.org/2000/svg">
<path opacity="0.4" d="M38.5 13.5975V15.75H3.5V13.195C3.5 9.18745 6.755 5.94995 10.7625 5.94995H28V10.4475C28 12.67 29.33 14 31.5525 14H36.6975C37.3975 14 37.9925 13.8775 38.5 13.5975Z" fill="#CA0C64"/>
<path d="M3.5 15.75V28.805C3.5 32.8125 6.755 36.05 10.7625 36.05H31.2375C35.245 36.05 38.5 32.8125 38.5 28.805V15.75H3.5ZM14 30.1875H10.5C9.7825 30.1875 9.1875 29.5925 9.1875 28.875C9.1875 28.1575 9.7825 27.5625 10.5 27.5625H14C14.7175 27.5625 15.3125 28.1575 15.3125 28.875C15.3125 29.5925 14.7175 30.1875 14 30.1875ZM25.375 30.1875H18.375C17.6575 30.1875 17.0625 29.5925 17.0625 28.875C17.0625 28.1575 17.6575 27.5625 18.375 27.5625H25.375C26.0925 27.5625 26.6875 28.1575 26.6875 28.875C26.6875 29.5925 26.0925 30.1875 25.375 30.1875Z" fill="#CA0C64"/>
<path d="M36.6975 1.75H31.5525C29.33 1.75 28 3.08 28 5.3025V10.4475C28 12.67 29.33 14 31.5525 14H36.6975C38.92 14 40.25 12.67 40.25 10.4475V5.3025C40.25 3.08 38.92 1.75 36.6975 1.75ZM38.3425 8.6275C38.1675 8.8025 37.905 8.925 37.625 8.9425H35.1575L35.175 11.375C35.1575 11.6725 35.0525 11.9175 34.8425 12.1275C34.6675 12.3025 34.405 12.425 34.125 12.425C33.5475 12.425 33.075 11.9525 33.075 11.375V8.925L30.625 8.9425C30.0475 8.9425 29.575 8.4525 29.575 7.875C29.575 7.2975 30.0475 6.825 30.625 6.825L33.075 6.8425V4.3925C33.075 3.815 33.5475 3.325 34.125 3.325C34.7025 3.325 35.175 3.815 35.175 4.3925L35.1575 6.825H37.625C38.2025 6.825 38.675 7.2975 38.675 7.875C38.6575 8.1725 38.535 8.4175 38.3425 8.6275Z" fill="#CA0C64"/>
</svg>
