<svg width="53" height="52" viewBox="0 0 53 52" fill="none" xmlns="http://www.w3.org/2000/svg">
<rect x="0.918945" width="52" height="52" rx="6" fill="#CA0C64" fill-opacity="0.08" style="fill:#CA0C64;fill:color(display-p3 0.7922 0.0471 0.3922);fill-opacity:0.08;"/>
<path d="M34.8172 23.6681H36.328C37.2563 23.6681 38.1465 23.2993 38.8028 22.643C39.4592 21.9865 39.8279 21.0963 39.8279 20.1682V16.6682C39.8279 16.3587 39.705 16.062 39.4862 15.8432C39.2674 15.6244 38.9707 15.5015 38.6613 15.5015H35.1612V13.1681C35.1612 12.8587 35.0383 12.562 34.8195 12.3432C34.6007 12.1244 34.304 12.0015 33.9946 12.0015H19.9945C19.6851 12.0015 19.3884 12.1244 19.1695 12.3432C18.9508 12.562 18.8278 12.8587 18.8278 13.1681V15.5015H15.3278C15.0184 15.5015 14.7217 15.6244 14.5028 15.8432C14.2841 16.062 14.1611 16.3587 14.1611 16.6682V20.1682C14.1611 21.0964 14.5299 21.9866 15.1862 22.643C15.8427 23.2993 16.7329 23.6681 17.6611 23.6681H19.1719C19.6186 25.1599 20.4825 26.4929 21.6618 27.5099C22.8411 28.5269 24.2865 29.1855 25.8278 29.4082V33.0015H23.4944C22.5662 33.0015 21.676 33.3703 21.0196 34.0266C20.3633 34.6831 19.9945 35.5733 19.9945 36.5014V38.8348C19.9945 39.1442 20.1174 39.4409 20.3362 39.6597C20.5551 39.8785 20.8518 40.0015 21.1612 40.0015H32.8279C33.1373 40.0015 33.434 39.8785 33.6529 39.6597C33.8716 39.4409 33.9946 39.1442 33.9946 38.8348V36.5014C33.9946 35.5732 33.6258 34.683 32.9694 34.0266C32.313 33.3703 31.4228 33.0015 30.4946 33.0015H28.1613V29.4082C29.7025 29.1855 31.148 28.5269 32.3273 27.5099C33.5066 26.4929 34.3705 25.1599 34.8172 23.6681ZM30.4946 35.3348C30.8041 35.3348 31.1008 35.4578 31.3196 35.6765C31.5384 35.8954 31.6613 36.1921 31.6613 36.5015V37.6682H22.3279V36.5015C22.3279 36.1921 22.4509 35.8954 22.6697 35.6765C22.8885 35.4578 23.1852 35.3348 23.4946 35.3348H30.4946ZM37.4947 17.8347V20.1681C37.4947 20.4775 37.3717 20.7742 37.153 20.993C36.9341 21.2118 36.6374 21.3348 36.328 21.3348H35.1613V17.8347H37.4947ZM17.6612 21.3348C17.3518 21.3348 17.0551 21.2118 16.8363 20.993C16.6175 20.7742 16.4946 20.4775 16.4946 20.1681V17.8347H18.8279V21.3348H17.6612ZM21.1613 21.3348V14.3347H32.828V21.3348C32.828 22.8819 32.2134 24.3657 31.1195 25.4597C30.0254 26.5536 28.5419 27.1682 26.9946 27.1682C25.4473 27.1682 23.9636 26.5536 22.8696 25.4597C21.7757 24.3656 21.1611 22.882 21.1611 21.3348H21.1613Z" fill="#CA0C64" style="fill:#CA0C64;fill:color(display-p3 0.7922 0.0471 0.3922);fill-opacity:1;"/>
</svg>
