<svg width="53" height="52" viewBox="0 0 53 52" fill="none" xmlns="http://www.w3.org/2000/svg">
<rect x="0.918945" width="52" height="52" rx="6" fill="#CA0C64" fill-opacity="0.08" style="fill:#CA0C64;fill:color(display-p3 0.7922 0.0471 0.3922);fill-opacity:0.08;"/>
<path d="M42.3985 30.5977C41.8611 29.3621 41.023 28.2806 39.961 27.4514C39.2809 26.9215 38.5641 26.4403 37.816 26.0115C38.8652 24.6234 39.3959 22.9121 39.316 21.174C39.2242 19.2965 38.434 17.5209 37.1005 16.1959C35.7672 14.8707 33.9866 14.0918 32.1084 14.0117H31.8159C30.026 14.0168 28.2968 14.6619 26.9409 15.8304C25.6654 14.722 24.0506 14.0807 22.3621 14.0117H22.0659C20.1994 14.0117 18.3999 14.7077 17.0193 15.9636C15.6386 17.2195 14.7758 18.9452 14.5995 20.8033C14.4231 22.6613 14.9461 24.5186 16.0659 26.0117C15.3151 26.4366 14.5969 26.9167 13.9171 27.448C12.8551 28.2771 12.0172 29.3586 11.4796 30.5942C11.0393 31.6055 10.8133 32.6973 10.8159 33.8004V34.2617C10.8159 35.2562 11.2111 36.2101 11.9143 36.9133C12.6176 37.6166 13.5714 38.0117 14.5659 38.0117H39.3159C40.3104 38.0117 41.2643 37.6166 41.9675 36.9133C42.6708 36.2101 43.0659 35.2563 43.0659 34.2617V33.8004C43.0669 32.6984 42.8396 31.6079 42.3984 30.5979L42.3985 30.5977ZM24.3161 35.0114H14.5661C14.3672 35.0114 14.1764 34.9324 14.0358 34.7917C13.895 34.651 13.8161 34.4603 13.8161 34.2614V33.8001C13.8158 32.2426 14.5356 30.7725 15.766 29.8176C16.8323 28.9767 18.0178 28.2993 19.2835 27.8076C19.5478 27.7113 19.7764 27.5365 19.9386 27.3065C20.1008 27.0767 20.1889 26.8027 20.191 26.5214V26.4126C20.1951 25.952 19.9684 25.5199 19.5872 25.2614C18.5067 24.5447 17.7879 23.3966 17.6149 22.1117C17.442 20.8267 17.8317 19.5295 18.6843 18.5526C19.5368 17.5757 20.7694 17.0141 22.0658 17.0115H22.2459C23.3705 17.0649 24.4353 17.5341 25.2335 18.3282C26.0319 19.1222 26.5066 20.1846 26.5658 21.309C26.6308 22.8932 25.8572 24.3947 24.5296 25.2615C24.1474 25.5245 23.9256 25.964 23.9408 26.4277V26.5215C23.9429 26.8028 24.031 27.0768 24.1931 27.3066C24.3554 27.5366 24.584 27.7114 24.8483 27.8077C26.114 28.2994 27.2996 28.9768 28.3658 29.8177C29.0336 30.3383 29.561 31.0176 29.8995 31.7939C30.1737 32.4273 30.3153 33.11 30.3157 33.8001V34.2614C30.3157 34.4603 30.2368 34.6511 30.096 34.7917C29.9554 34.9324 29.7646 35.0114 29.5657 35.0114L24.3161 35.0114ZM40.066 34.2614C40.066 34.4602 39.9871 34.651 39.8463 34.7917C39.7057 34.9324 39.5149 35.0114 39.316 35.0114H33.241C33.2906 34.7645 33.3157 34.5132 33.316 34.2614V33.8001C33.317 32.698 33.0897 31.6076 32.6485 30.5976C32.1111 29.362 31.273 28.2805 30.211 27.4514C29.5318 26.9201 28.8149 26.4388 28.066 26.0114C29.1163 24.6225 29.6471 22.9096 29.566 21.1702C29.519 20.1338 29.2532 19.1191 28.786 18.1928C29.6135 17.4351 30.6941 17.0139 31.816 17.0116H31.996C33.2599 17.0642 34.4434 17.6463 35.2564 18.6155C36.0693 19.5848 36.4369 20.8514 36.2689 22.1052C36.1009 23.359 35.4129 24.4842 34.3734 25.2052C34.0757 25.4135 33.8638 25.7227 33.7769 26.0755C33.6901 26.4284 33.7343 26.8008 33.9011 27.1234C34.0681 27.4461 34.3466 27.6972 34.6847 27.8302C35.9181 28.3193 37.0738 28.9849 38.1159 29.8065C38.7831 30.3278 39.3102 31.007 39.6496 31.7826C39.9271 32.4188 40.0688 33.106 40.0659 33.8001L40.066 34.2614Z" fill="#CA0C64" stroke="#FBECF3" style="fill:#CA0C64;fill:color(display-p3 0.7922 0.0471 0.3922);fill-opacity:1;stroke:#FBECF3;stroke:color(display-p3 0.9843 0.9255 0.9529);stroke-opacity:1;" stroke-width="0.24"/>
</svg>
