<svg width="35" height="41" viewBox="0 0 35 41" fill="none" xmlns="http://www.w3.org/2000/svg">
<path d="M34.654 12.2507C34.6625 11.0514 34.19 9.89864 33.3419 9.05075L26.5195 2.26035C25.6792 1.42014 24.5397 0.948242 23.3514 0.948242H7.13375C5.26666 0.948242 3.47604 1.68989 2.15562 3.01011C0.835404 4.33053 0.09375 6.12115 0.09375 7.98824V33.5882C0.09375 35.4553 0.835404 37.246 2.15562 38.5664C3.47604 39.8866 5.26666 40.6282 7.13375 40.6282H27.6138C29.4808 40.6282 31.2715 39.8866 32.5919 38.5664C33.9121 37.246 34.6538 35.4553 34.6538 33.5882L34.654 12.2507ZM30.814 33.5884C30.814 34.4371 30.4769 35.2511 29.8767 35.8511C29.2767 36.4513 28.4627 36.7883 27.614 36.7883H7.13396C6.28522 36.7883 5.47124 36.4513 4.87124 35.8511C4.27103 35.2511 3.93396 34.4371 3.93396 33.5884V7.98835C3.93396 7.1396 4.27105 6.32563 4.87124 5.72563C5.47124 5.12542 6.28522 4.78835 7.13396 4.78835H23.6204L30.814 11.9819V33.5884Z" fill="#CA0C64" style="fill:#CA0C64;fill:color(display-p3 0.7922 0.0471 0.3922);fill-opacity:1;"/>
<path d="M22.494 25.2686H12.254C11.568 25.2686 10.9343 25.6346 10.5913 26.2286C10.2482 26.8225 10.2482 27.5546 10.5913 28.1486C10.9342 28.7425 11.568 29.1086 12.254 29.1086H22.494C23.1801 29.1086 23.8138 28.7425 24.1568 28.1486C24.4999 27.5546 24.4999 26.8225 24.1568 26.2286C23.8139 25.6346 23.1801 25.2686 22.494 25.2686Z" fill="#CA0C64" style="fill:#CA0C64;fill:color(display-p3 0.7922 0.0471 0.3922);fill-opacity:1;"/>
<path d="M22.494 15.0283H12.254C11.568 15.0283 10.9343 15.3944 10.5913 15.9883C10.2482 16.5823 10.2482 17.3143 10.5913 17.9083C10.9342 18.5023 11.568 18.8683 12.254 18.8683H22.494C23.1801 18.8683 23.8138 18.5023 24.1568 17.9083C24.4999 17.3143 24.4999 16.5823 24.1568 15.9883C23.8139 15.3943 23.1801 15.0283 22.494 15.0283Z" fill="#CA0C64" style="fill:#CA0C64;fill:color(display-p3 0.7922 0.0471 0.3922);fill-opacity:1;"/>
</svg>
