<svg width="39" height="41" viewBox="0 0 39 41" fill="none" xmlns="http://www.w3.org/2000/svg">
<path d="M18.1365 33.2438L21.0677 34.7094L22.5333 37.6406L22.5331 37.6404C23.0319 38.6373 23.8844 39.4123 24.9239 39.8142C25.9635 40.2163 27.1156 40.2163 28.1552 39.8142C29.1948 39.4123 30.0473 38.6373 30.546 37.6404L32.0116 34.7092L34.9429 33.2436L34.9427 33.2438C35.9395 32.745 36.7145 31.8925 37.1164 30.8529C37.5185 29.8134 37.5185 28.6613 37.1164 27.6217C36.7145 26.5821 35.9396 25.7296 34.9427 25.2309L32.0114 23.7653L30.5458 20.834L30.546 20.8342C30.0473 19.8374 29.1948 19.0623 28.1552 18.6605C27.1156 18.2584 25.9635 18.2584 24.9239 18.6605C23.8844 19.0623 23.0318 19.8373 22.5331 20.8342L21.0675 23.7655L18.1362 25.2311L18.1365 25.2309C17.1396 25.7296 16.3646 26.5821 15.9627 27.6217C15.5606 28.6613 15.5606 29.8134 15.9627 30.8529C16.3646 31.8925 17.1395 32.745 18.1365 33.2438ZM19.8517 28.6613L22.7829 27.1957H22.7827C23.5248 26.8244 24.1266 26.2225 24.4979 25.4805L25.9635 22.5492V22.5494C26.0731 22.3321 26.2962 22.1957 26.5396 22.1973C26.7829 22.1957 27.006 22.3321 27.1156 22.5494L28.5812 25.4807V25.4805C28.9525 26.2225 29.5543 26.8244 30.2964 27.1957L33.2277 28.6613H33.2275C33.4447 28.7696 33.582 28.9915 33.582 29.2342C33.582 29.4769 33.4447 29.6985 33.2275 29.8069L30.2962 31.2725H30.2964C29.5543 31.6439 28.9525 32.2456 28.5812 32.9877L27.1156 35.9189C27.0079 36.1387 26.7844 36.2777 26.5396 36.2772C26.2985 36.2764 26.0783 36.1404 25.97 35.9252L24.5044 32.9939V32.9941C24.1329 32.252 23.5312 31.6502 22.7892 31.2789L19.8579 29.8133C19.6408 29.705 19.5035 29.4831 19.5035 29.2404C19.5035 28.9977 19.6408 28.776 19.8579 28.6677L19.8517 28.6613Z" fill="#CA0C64" style="fill:#CA0C64;fill:color(display-p3 0.7922 0.0471 0.3922);fill-opacity:1;"/>
<path d="M9.45159 0.437313H9.25951C8.78597 0.440229 8.32991 0.617937 7.97951 0.936481C7.57493 1.29836 7.34244 1.81461 7.33951 2.35733V6.19733L6.80826 6.28692C5.16597 6.564 3.67514 7.41444 2.60052 8.68692C1.52596 9.9594 0.937379 11.5717 0.939459 13.2373V33.0773C0.939459 34.9444 1.68111 36.735 3.00133 38.0555C4.32175 39.3757 6.11237 40.1173 7.97946 40.1173H12.4595C13.1455 40.1173 13.7792 39.7513 14.1222 39.1573C14.4653 38.5633 14.4653 37.8313 14.1222 37.2373C13.7793 36.6433 13.1455 36.2773 12.4595 36.2773H7.97946C7.13071 36.2773 6.31674 35.9402 5.71674 35.34C5.11653 34.74 4.77946 33.9261 4.77946 33.0773V13.2373C4.77946 12.3886 5.11654 11.5746 5.71674 10.9746C6.31674 10.3744 7.13071 10.0373 7.97946 10.0373H31.0195C31.8682 10.0373 32.6822 10.3744 33.2822 10.9746C33.8824 11.5746 34.2195 12.3886 34.2195 13.2373V15.7973C34.2195 16.4833 34.5855 17.1171 35.1795 17.46C35.7734 17.8032 36.5055 17.8032 37.0995 17.46C37.6934 17.1171 38.0595 16.4834 38.0595 15.7973V13.2373C38.057 11.575 37.4663 9.96735 36.3922 8.69876C35.318 7.43017 33.8296 6.58271 32.1907 6.30607L31.6595 6.19731V2.46606C31.6718 1.9746 31.5024 1.49566 31.1834 1.12126C30.8645 0.74686 30.4188 0.503339 29.9315 0.437313C29.3899 0.381686 28.8503 0.558352 28.4467 0.923771C28.0434 1.29085 27.8155 1.81209 27.8194 2.35732V6.19732H21.4194V2.46606C21.4317 1.97461 21.2623 1.49566 20.9434 1.12126C20.6244 0.746865 20.1788 0.503345 19.6915 0.437318C19.1498 0.381692 18.6103 0.558358 18.2067 0.923777C17.8034 1.29086 17.5754 1.8121 17.5794 2.35732V6.19732H11.1794V2.46607C11.1917 1.97461 11.0223 1.49567 10.7033 1.12127C10.3844 0.74687 9.93875 0.50335 9.45144 0.437323L9.45159 0.437313Z" fill="#CA0C64" style="fill:#CA0C64;fill:color(display-p3 0.7922 0.0471 0.3922);fill-opacity:1;"/>
<path d="M16.9392 18.9972C16.9374 18.7599 16.8042 18.5433 16.5936 18.4341L15.0705 17.6724L14.3088 16.1493C14.1972 15.9422 13.9809 15.8132 13.7457 15.8132C13.5104 15.8132 13.2942 15.9422 13.1824 16.1493L12.4207 17.6724L10.8976 18.4341C10.6907 18.5457 10.5615 18.762 10.5615 18.9972C10.5615 19.2325 10.6907 19.4487 10.8976 19.5604L12.4207 20.322L13.1824 21.8452C13.2942 22.0523 13.5105 22.1812 13.7457 22.1812C13.9809 22.1812 14.1971 22.0523 14.3088 21.8452L15.0705 20.322L16.5936 19.5604C16.8042 19.4512 16.9374 19.2345 16.9392 18.9972Z" fill="#CA0C64" style="fill:#CA0C64;fill:color(display-p3 0.7922 0.0471 0.3922);fill-opacity:1;"/>
</svg>
