<svg width="41" height="41" viewBox="0 0 41 41" fill="none" xmlns="http://www.w3.org/2000/svg">
<path d="M0.660156 8.87261L0.660156 31.6822C0.66349 33.9183 1.55328 36.0618 3.13456 37.6433C4.71578 39.2245 6.85936 40.1143 9.09562 40.1177H31.9052C34.1413 40.1143 36.2848 39.2246 37.8663 37.6433C39.4475 36.062 40.3373 33.9185 40.3407 31.6822V8.87261C40.3374 6.63655 39.4476 4.49303 37.8663 2.91154C36.2851 1.33031 34.1415 0.440502 31.9052 0.437141H9.09562C6.85957 0.440475 4.71605 1.33026 3.13456 2.91154C1.55333 4.49277 0.663516 6.63634 0.660156 8.87261ZM31.905 4.27741C33.1231 4.27908 34.291 4.76387 35.1525 5.62514C36.0137 6.48658 36.4985 7.65453 36.5002 8.87266V31.6823C36.4985 32.9004 36.0138 34.0683 35.1525 34.9298C34.291 35.791 33.1231 36.2758 31.905 36.2775H9.09536C7.87722 36.2758 6.70933 35.7911 5.84784 34.9298C4.98661 34.0683 4.50181 32.9004 4.5001 31.6823L4.5001 8.87266C4.50177 7.65453 4.98656 6.48664 5.84784 5.62514C6.70928 4.76392 7.87722 4.27911 9.09536 4.27741H31.905Z" fill="#CA0C64" style="fill:#CA0C64;fill:color(display-p3 0.7922 0.0471 0.3922);fill-opacity:1;"/>
<path d="M15.3799 25.3973C15.3803 25.9063 15.5828 26.3942 15.9428 26.7538C16.3028 27.1136 16.7907 27.3157 17.2997 27.3157C17.8086 27.3157 18.2965 27.1138 18.6567 26.7542C19.1461 26.2663 19.8088 25.9926 20.4999 25.9926C21.1909 25.9926 21.8536 26.2663 22.343 26.7542C22.703 27.1136 23.1911 27.3157 23.6999 27.3157C24.2086 27.3157 24.6967 27.1136 25.0567 26.7542C25.4057 26.3886 25.6003 25.9028 25.6003 25.3974C25.6003 24.892 25.4057 24.4061 25.0567 24.0405C23.848 22.8322 22.209 22.1532 20.4999 22.1532C18.7908 22.1532 17.1518 22.8322 15.943 24.0405C15.583 24.4003 15.3803 24.8884 15.3799 25.3974V25.3973Z" fill="#CA0C64" style="fill:#CA0C64;fill:color(display-p3 0.7922 0.0471 0.3922);fill-opacity:1;"/>
<path d="M8.62218 18.639C8.6226 19.1478 8.8251 19.6357 9.1849 19.9955C9.5449 20.3551 10.033 20.5572 10.542 20.5574C11.0507 20.5574 11.5388 20.3553 11.8988 19.9957C14.1792 17.7153 17.2722 16.4343 20.4972 16.4343C23.7223 16.4343 26.8151 17.7153 29.0956 19.9957C29.4556 20.3553 29.9435 20.5574 30.4525 20.5574C30.9612 20.5574 31.4492 20.3553 31.8092 19.9957C32.1581 19.6303 32.3529 19.1443 32.3529 18.639C32.3529 18.1336 32.1581 17.6478 31.8092 17.2822C29.8231 15.2957 27.3492 13.867 24.6358 13.1397C21.9225 12.4126 19.0657 12.4126 16.3521 13.1397C13.6388 13.867 11.1646 15.2957 9.17877 17.2822C8.82106 17.643 8.62085 18.1309 8.62208 18.639H8.62218Z" fill="#CA0C64" style="fill:#CA0C64;fill:color(display-p3 0.7922 0.0471 0.3922);fill-opacity:1;"/>
</svg>
