<svg width="41" height="41" viewBox="0 0 41 41" fill="none" xmlns="http://www.w3.org/2000/svg">
<path d="M20.5 0.716553C18.6329 0.716553 16.8423 1.45821 15.5218 2.77842C14.2016 4.09885 13.46 5.88946 13.46 7.75655C13.46 9.62365 14.2016 11.4143 15.5218 12.7347C16.8423 14.0549 18.6329 14.7966 20.5 14.7966C22.3671 14.7966 24.1577 14.0549 25.4781 12.7347C26.7983 11.4143 27.54 9.62365 27.54 7.75655C27.54 5.88946 26.7983 4.09885 25.4781 2.77842C24.1577 1.45821 22.3671 0.716553 20.5 0.716553ZM20.5 10.9566C19.6512 10.9566 18.8372 10.6195 18.2372 10.0193C17.637 9.41927 17.3 8.6053 17.3 7.75655C17.3 6.90781 17.637 6.09383 18.2372 5.49383C18.8372 4.89362 19.6512 4.55655 20.5 4.55655C21.3487 4.55655 22.1627 4.89364 22.7627 5.49383C23.3629 6.09383 23.7 6.90781 23.7 7.75655C23.7 8.6053 23.3629 9.41927 22.7627 10.0193C22.1627 10.6195 21.3487 10.9566 20.5 10.9566Z" fill="#CA0C64" style="fill:#CA0C64;fill:color(display-p3 0.7922 0.0471 0.3922);fill-opacity:1;"/>
<path d="M40.3402 37.7084C40.3325 36.0873 39.9348 34.4923 39.1806 33.0575C38.4264 31.6228 37.3381 30.3904 36.0075 29.4651L35.3354 28.9915L35.9754 28.454V28.4538C37.3843 27.2417 38.2568 25.5215 38.4025 23.6686C38.5481 21.8157 37.9552 19.9803 36.7527 18.563C35.5504 17.1455 33.8362 16.2611 31.9843 16.1028C30.1325 15.9442 28.2931 16.5244 26.8673 17.717C25.4417 18.9097 24.5454 20.6176 24.3742 22.4682C24.2029 24.319 24.7704 26.1624 25.9529 27.5963L26.4777 28.2363L25.729 28.5884C23.7456 29.5197 22.1096 31.0569 21.0571 32.9788L20.5002 33.9963L19.9371 32.9532C18.8844 31.0315 17.2483 29.494 15.265 28.5628L14.5227 28.2363L15.0475 27.5963C16.2335 26.1632 16.8043 24.319 16.635 22.4665C16.4656 20.614 15.57 18.9038 14.1435 17.7096C12.7173 16.5152 10.8762 15.9342 9.02288 16.0931C7.16933 16.2519 5.45413 17.1379 4.25184 18.5575C3.04976 19.9771 2.45808 21.8148 2.60661 23.6692C2.75495 25.5236 3.63141 27.2436 5.04411 28.4538L5.68411 28.9913L5.012 29.4648L5.01221 29.465C3.67781 30.3883 2.58576 31.6196 1.82826 33.0546C1.07077 34.4894 0.669916 36.0857 0.660156 37.7084V38.4763C0.660156 39.1623 1.0262 39.7961 1.62016 40.139C2.21413 40.4821 2.94618 40.4821 3.54016 40.139C4.13413 39.7961 4.50016 39.1624 4.50016 38.4763V37.7084C4.5187 36.0284 5.20309 34.4244 6.40288 33.2486C7.60288 32.0728 9.22016 31.4209 10.9002 31.4363C12.2664 31.4307 13.5987 31.8626 14.702 32.6688C15.8052 33.4748 16.6214 34.613 17.0314 35.9163C17.3468 36.9034 18.0677 37.7092 19.0135 38.1322C19.9595 38.5553 21.0408 38.5553 21.9868 38.1322C22.9326 37.7093 23.6535 36.9034 23.9689 35.9163C24.3789 34.613 25.1951 33.4749 26.2983 32.6688C27.4016 31.8626 28.7339 31.4307 30.1002 31.4363C31.7802 31.4209 33.3974 32.0728 34.5974 33.2486C35.7972 34.4244 36.4816 36.0284 36.5002 37.7084V38.4763C36.5002 39.1623 36.8662 39.7961 37.4602 40.139C38.0541 40.4821 38.7862 40.4821 39.3802 40.139C39.9741 39.7961 40.3402 39.1624 40.3402 38.4763L40.3402 37.7084ZM9.62018 26.3164C8.77144 26.3164 7.95746 25.9793 7.35746 25.3791C6.75725 24.7791 6.42018 23.9651 6.42018 23.1164C6.42018 22.2676 6.75727 21.4536 7.35746 20.8536C7.95746 20.2534 8.77144 19.9164 9.62018 19.9164C10.4689 19.9164 11.2829 20.2534 11.8829 20.8536C12.4831 21.4536 12.8202 22.2676 12.8202 23.1164C12.8202 23.9651 12.4831 24.7791 11.8829 25.3791C11.2829 25.9793 10.4689 26.3164 9.62018 26.3164ZM31.3802 26.3164C30.5314 26.3164 29.7175 25.9793 29.1175 25.3791C28.5172 24.7791 28.1802 23.9651 28.1802 23.1164C28.1802 22.2676 28.5173 21.4536 29.1175 20.8536C29.7175 20.2534 30.5314 19.9164 31.3802 19.9164C32.2289 19.9164 33.0429 20.2534 33.6429 20.8536C34.2431 21.4536 34.5802 22.2676 34.5802 23.1164C34.5802 23.9651 34.2431 24.7791 33.6429 25.3791C33.0429 25.9793 32.2289 26.3164 31.3802 26.3164Z" fill="#CA0C64" style="fill:#CA0C64;fill:color(display-p3 0.7922 0.0471 0.3922);fill-opacity:1;"/>
</svg>
