<svg width="53" height="52" viewBox="0 0 53 52" fill="none" xmlns="http://www.w3.org/2000/svg">
<rect x="0.378418" width="52" height="52" rx="6" fill="#CA0C64" fill-opacity="0.08" style="fill:#CA0C64;fill:color(display-p3 0.7922 0.0471 0.3922);fill-opacity:0.08;"/>
<path d="M14.13 42.3419C14.246 40.5648 15.0959 37.3581 19.3456 35.8514C21.2001 35.1947 21.8568 34.5378 22.1272 33.9583C22.3203 33.572 22.6681 33.3016 23.093 33.3016H29.6221C30.0471 33.3016 30.4334 33.572 30.588 33.9583C30.8583 34.5378 31.5538 35.1945 33.3695 35.8514C37.6192 37.3582 38.4306 40.5647 38.5851 42.3419V43.1532C38.5851 43.7327 38.1215 44.235 37.5033 44.235H36.8078L28.2697 44.2348L26.8404 40.101C29.0038 37.0489 26.6858 36.8944 26.2608 36.8944C25.8359 36.8944 23.5179 37.0489 25.6813 40.101L24.445 44.2348H15.1729C14.5934 44.2348 14.0911 43.7713 14.0911 43.153V42.3419L14.13 42.3419ZM26.3769 12.2075C26.8019 12.2075 27.1882 11.8598 27.1882 11.3963V8.57593C27.1882 8.15099 26.8405 7.76465 26.3769 7.76465C25.952 7.76465 25.5657 8.11238 25.5657 8.57593V11.3963C25.5657 11.8212 25.952 12.2075 26.3769 12.2075ZM13.2415 22.4841H16.0618C16.4867 22.4841 16.8731 22.1364 16.8731 21.6728C16.8731 21.2093 16.5253 20.8616 16.0618 20.8616L13.2415 20.8614C12.8165 20.8614 12.4302 21.2092 12.4302 21.6727C12.4302 22.1364 12.8165 22.4841 13.2415 22.4841ZM35.8809 21.6728C35.8809 22.0978 36.2286 22.4841 36.6921 22.4841H39.5125C39.9374 22.4841 40.3237 22.1364 40.3237 21.6728C40.3623 21.2479 40.0146 20.8616 39.5125 20.8616H36.6921C36.2286 20.9002 35.8809 21.2478 35.8809 21.6728ZM17.0662 31.7949C17.2594 31.7949 17.4911 31.7177 17.6457 31.5631L19.6546 29.5542C19.9637 29.2451 19.9637 28.7429 19.6546 28.3952C19.3455 28.0861 18.8433 28.0861 18.5342 28.3952L16.5253 30.4041C16.2162 30.7132 16.2162 31.2154 16.5253 31.5631C16.6412 31.7177 16.873 31.7949 17.0662 31.7949ZM33.6787 15.221C33.8719 15.221 34.1037 15.1438 34.2582 14.9892L36.2671 12.9803C36.5762 12.6712 36.5762 12.1691 36.2671 11.8213C35.958 11.5122 35.4558 11.5122 35.1081 11.8213L33.0992 13.8302C32.7901 14.1393 32.7901 14.6415 33.0992 14.9892C33.2538 15.1052 33.4856 15.221 33.6787 15.221ZM18.4956 14.9892C18.6502 15.1438 18.8434 15.221 19.0752 15.221C19.2683 15.221 19.5001 15.1438 19.6547 14.9892C19.9638 14.6801 19.9638 14.1779 19.6547 13.8302L17.6458 11.8213C17.3366 11.5122 16.8345 11.5122 16.4868 11.8213C16.139 12.1304 16.1776 12.6326 16.4868 12.9803L18.4956 14.9892ZM35.649 31.7949C35.8422 31.7949 36.074 31.7177 36.2286 31.5631C36.5377 31.254 36.5377 30.7519 36.2286 30.4041L34.2583 28.3952C33.9491 28.0861 33.447 28.0861 33.0993 28.3952C32.7515 28.7044 32.7901 29.2065 33.0993 29.5542L35.1081 31.5631C35.2627 31.7177 35.4559 31.7949 35.649 31.7949ZM18.8434 21.866C18.8047 17.7322 22.1272 14.3324 26.261 14.2938H26.2996C30.4335 14.2938 33.8332 17.655 33.8332 21.7501C33.8332 23.6818 33.0606 25.5749 31.747 26.9271C30.9743 27.6997 30.472 28.7042 30.3176 29.786C30.163 30.7132 29.3517 31.4085 28.4245 31.4085L24.2907 31.4084C23.3248 31.4084 22.5136 30.7129 22.3976 29.7859C22.243 28.7041 21.7409 27.6996 20.9682 26.9269C19.616 25.5748 18.882 23.7589 18.8434 21.8659L18.8434 21.866ZM20.5047 21.8273C20.5433 23.2955 21.1228 24.7248 22.1272 25.8066C23.0931 26.811 23.7885 28.1632 23.9817 29.5541C24.0203 29.7086 24.1363 29.7858 24.2521 29.7858H25.5271V24.9952L23.8658 23.2953C23.5566 22.9862 23.5566 22.484 23.8658 22.2135C24.1749 21.9044 24.677 21.9044 24.9476 22.2135L26.3384 23.6043L27.7291 22.2135C28.0383 21.9044 28.5404 21.9044 28.8109 22.2135C29.1201 22.5226 29.1201 23.0248 28.8109 23.2953L27.111 24.9952V29.8245H28.386C28.5406 29.8245 28.6564 29.7085 28.6564 29.5927C28.8882 28.1633 29.5063 26.8497 30.5109 25.8452C31.5539 24.7634 32.1334 23.2954 32.1334 21.7887C32.1334 18.582 29.5063 15.955 26.2611 15.955H26.2225C23.0545 15.9548 20.4661 18.6206 20.5047 21.827L20.5047 21.8273Z" fill="#CA0C64" style="fill:#CA0C64;fill:color(display-p3 0.7922 0.0471 0.3922);fill-opacity:1;"/>
</svg>
