<svg width="53" height="52" viewBox="0 0 53 52" fill="none" xmlns="http://www.w3.org/2000/svg">
<rect x="0.459473" width="52" height="52" rx="6" fill="#CA0C64" fill-opacity="0.08" style="fill:#CA0C64;fill:color(display-p3 0.7922 0.0471 0.3922);fill-opacity:0.08;"/>
<path d="M27.6334 25.9952C27.6334 26.7948 26.9852 27.443 26.1856 27.443C25.386 27.443 24.7378 26.7948 24.7378 25.9952C24.7378 25.1955 25.386 24.5474 26.1856 24.5474C26.9852 24.5474 27.6334 25.1955 27.6334 25.9952Z" fill="#CA0C64" style="fill:#CA0C64;fill:color(display-p3 0.7922 0.0471 0.3922);fill-opacity:1;"/>
<path d="M13.3003 28.8185C11.0369 34.1657 12.7404 37.0228 13.9567 38.2244C15.1847 39.4157 16.846 40.0538 18.5559 39.9909C20.6938 39.9909 23.2468 39.1559 25.9446 37.5778L26.1907 37.433L26.4369 37.5778C29.1299 39.1559 31.6828 39.9909 33.8256 39.9909C35.5353 40.0539 37.1967 39.4157 38.4248 38.2244C41.9044 34.7449 39.5011 29.2287 37.7589 26.251L37.614 26.0049L37.7589 25.7587V25.7589C38.2548 24.9259 38.6966 24.0619 39.0811 23.1721C41.3446 17.8248 39.641 14.9678 38.4248 13.7661C37.1944 12.5723 35.529 11.9341 33.8159 11.9997C31.678 11.9997 29.125 12.8347 26.4273 14.4127L26.1811 14.5576L25.9349 14.4127C23.242 12.8347 20.689 11.9997 18.5463 11.9997C16.8366 11.9367 15.1751 12.5749 13.947 13.7661C12.731 14.9822 11.0272 17.8248 13.2907 23.1721C13.6721 24.0586 14.1106 24.9195 14.6034 25.7491L14.7483 25.9953L14.6034 26.2415C14.1139 27.0714 13.6786 27.9323 13.3005 28.8185L13.3003 28.8185ZM36.364 36.1734C35.6753 36.8144 34.7553 37.1472 33.8159 37.0952C32.333 37.023 30.8832 36.6329 29.5641 35.9514L28.8595 35.6232L29.4677 35.1406C30.5477 34.2736 31.5789 33.3472 32.5562 32.3657C33.5356 31.3841 34.4588 30.3481 35.3216 29.2625L35.8042 28.6544L36.1373 29.3736C37.5898 32.4478 37.6719 34.8705 36.364 36.1735L36.364 36.1734ZM29.5641 16.0391C32.6383 14.5913 35.0803 14.5238 36.3688 15.8123C37.6573 17.1008 37.5946 19.538 36.142 22.6315L35.8089 23.3361L35.3263 22.728L35.3265 22.7281C34.4632 21.6415 33.5384 20.6053 32.5562 19.625C31.577 18.6452 30.5443 17.7203 29.4628 16.8547L28.8547 16.3721L29.5641 16.0391ZM26.1859 18.0178L26.4658 18.2204C27.911 19.2524 29.2699 20.4 30.5294 21.6517C31.7869 22.9044 32.9408 24.2569 33.98 25.696L34.1827 25.9759L33.98 26.2559C32.9425 27.7082 31.7885 29.0737 30.5294 30.3387C29.2765 31.5961 27.9241 32.7501 26.4851 33.7894L26.2052 33.992L25.9252 33.7894C24.473 32.7517 23.1076 31.5977 21.8424 30.3387C20.5848 29.086 19.431 27.7336 18.3917 26.2945L18.2084 25.9952L18.4111 25.7153C20.5003 22.8389 23.0296 20.3097 25.9059 18.2204L26.1859 18.0178ZM16.0078 15.8171C17.3011 14.5286 19.7431 14.6011 22.8125 16.044L23.5171 16.3722L22.909 16.8548V16.8546C21.8275 17.7202 20.7947 18.6451 19.8155 19.6249C18.8362 20.6064 17.9129 21.6425 17.0501 22.728L16.5675 23.3361L16.2345 22.6169C14.782 19.5427 14.6998 17.1201 16.0078 15.8171L16.0078 15.8171ZM16.2344 29.3735L16.5626 28.6689L17.0452 29.277C17.9101 30.3575 18.8349 31.3887 19.8155 32.3656C20.7947 33.3454 21.8274 34.2702 22.9089 35.1358L23.517 35.6184L22.8076 35.9513C21.4886 36.6328 20.0387 37.0229 18.5558 37.0951C17.6164 37.1471 16.6964 36.8142 16.0077 36.1733C14.6997 34.8703 14.7819 32.4477 16.2344 29.3734L16.2344 29.3735Z" fill="#CA0C64" style="fill:#CA0C64;fill:color(display-p3 0.7922 0.0471 0.3922);fill-opacity:1;"/>
</svg>
